<?xml version="1.0" encoding="UTF-8"?>
<!DOCTYPE svg PUBLIC "-//W3C//DTD SVG 1.1//EN" "http://www.w3.org/Graphics/SVG/1.1/DTD/svg11.dtd">
<svg xmlns="http://www.w3.org/2000/svg" version="1.1" width="500px" height="281px" style="shape-rendering:geometricPrecision; text-rendering:geometricPrecision; image-rendering:optimizeQuality; fill-rule:evenodd; clip-rule:evenodd" xmlns:xlink="http://www.w3.org/1999/xlink">
<g><path style="opacity:0.082" fill="#e8e8e8" d="M 252.5,37.5 C 254.953,36.3549 257.287,36.6883 259.5,38.5C 257.097,38.552 254.764,38.2186 252.5,37.5 Z"/></g>
<g><path style="opacity:0.957" fill="#232323" d="M 252.5,37.5 C 254.764,38.2186 257.097,38.552 259.5,38.5C 260.499,46.4843 261.499,54.4843 262.5,62.5C 261.5,62.5 260.5,62.5 259.5,62.5C 258.391,62.4431 257.391,62.1098 256.5,61.5C 255.952,56.7448 253.286,54.9114 248.5,56C 247.619,56.7083 246.953,57.5416 246.5,58.5C 245.027,59.0715 243.36,59.0715 241.5,58.5C 241.833,57.1667 242.167,55.8333 242.5,54.5C 242.328,53.5084 242.662,52.8417 243.5,52.5C 244.906,52.0269 245.573,51.0269 245.5,49.5C 245.328,48.5084 245.662,47.8417 246.5,47.5C 247.906,47.0269 248.573,46.0269 248.5,44.5C 248.328,43.5084 248.662,42.8417 249.5,42.5C 250.906,42.0269 251.573,41.0269 251.5,39.5C 251.328,38.5084 251.662,37.8417 252.5,37.5 Z M 253.5,45.5 C 254.167,46.5 254.833,47.5 255.5,48.5C 255.5,48.8333 255.5,49.1667 255.5,49.5C 254.167,50.8333 252.833,50.8333 251.5,49.5C 252.6,48.3951 253.267,47.0618 253.5,45.5 Z"/></g>
<g><path style="opacity:0.486" fill="#cbcbcb" d="M 251.5,39.5 C 251.573,41.0269 250.906,42.0269 249.5,42.5C 249.427,40.9731 250.094,39.9731 251.5,39.5 Z"/></g>
<g><path style="opacity:0.439" fill="#c0c0c0" d="M 209.5,44.5 C 208.849,43.9094 208.182,43.2427 207.5,42.5C 206.583,43.1272 205.583,43.4606 204.5,43.5C 207.285,39.3277 208.952,39.661 209.5,44.5 Z"/></g>
<g><path style="opacity:0.958" fill="#252525" d="M 209.5,44.5 C 211.334,43.506 213.001,43.506 214.5,44.5C 214.567,45.9587 214.234,47.2921 213.5,48.5C 212.325,48.281 211.325,48.6143 210.5,49.5C 210.624,50.1067 210.957,50.44 211.5,50.5C 212.363,52.4214 213.029,54.4214 213.5,56.5C 213.47,57.4972 213.97,58.1639 215,58.5C 216.138,58.0109 217.305,57.6775 218.5,57.5C 218.833,57.5 219.167,57.5 219.5,57.5C 219.5,57.8333 219.5,58.1667 219.5,58.5C 219.229,60.4305 218.229,61.7638 216.5,62.5C 214.833,62.5 213.167,62.5 211.5,62.5C 208.325,60.0078 206.659,56.6744 206.5,52.5C 206.289,50.5759 205.623,50.2426 204.5,51.5C 204.167,51.5 203.833,51.5 203.5,51.5C 203.227,49.549 203.893,48.049 205.5,47C 205.272,46.6012 204.938,46.4346 204.5,46.5C 203.375,45.3478 203.375,44.3478 204.5,43.5C 205.583,43.4606 206.583,43.1272 207.5,42.5C 208.182,43.2427 208.849,43.9094 209.5,44.5 Z"/></g>
<g><path style="opacity:0.942" fill="#222222" d="M 231.5,42.5 C 232.11,44.4341 233.11,46.1007 234.5,47.5C 235.684,48.6879 235.684,49.8545 234.5,51C 232,51.5 229.5,52 227,52.5C 225.624,52.6842 224.791,53.3509 224.5,54.5C 224.866,55.6946 225.699,56.3613 227,56.5C 229.279,55.6086 231.446,54.6086 233.5,53.5C 234.11,54.391 234.443,55.391 234.5,56.5C 234.167,57.5 233.5,58.1667 232.5,58.5C 228.866,59.758 225.2,59.758 221.5,58.5C 221.167,58.5 220.833,58.5 220.5,58.5C 220.5,57.8333 220.167,57.5 219.5,57.5C 219.5,57.1667 219.5,56.8333 219.5,56.5C 219.672,55.5084 219.338,54.8417 218.5,54.5C 217.233,51.728 217.233,49.0613 218.5,46.5C 221.984,42.868 226.317,41.5347 231.5,42.5 Z M 228.5,46.5 C 227.07,47.5375 225.403,48.2041 223.5,48.5C 224.635,46.7868 226.302,46.1201 228.5,46.5 Z"/></g>
<g><path style="opacity:0.769" fill="#919191" d="M 231.5,42.5 C 233.727,43.4006 234.727,45.0672 234.5,47.5C 233.11,46.1007 232.11,44.4341 231.5,42.5 Z"/></g>
<g><path style="opacity:0.149" fill="#e4e4e4" d="M 255.5,48.5 C 254.833,47.5 254.167,46.5 253.5,45.5C 253.987,44.5266 254.487,43.5266 255,42.5C 255.495,44.4727 255.662,46.4727 255.5,48.5 Z"/></g>
<g><path style="opacity:0.024" fill="#cecece" d="M 274.5,48.5 C 274.5,47.5 274.5,46.5 274.5,45.5C 273.167,45.5 271.833,45.5 270.5,45.5C 270.369,44.7611 270.536,44.0944 271,43.5C 272.356,44.3802 273.856,44.7135 275.5,44.5C 275.768,46.099 275.434,47.4324 274.5,48.5 Z"/></g>
<g><path style="opacity:0.2" fill="#cdcdcd" d="M 231.5,42.5 C 226.317,41.5347 221.984,42.868 218.5,46.5C 219.763,42.4468 222.596,40.4468 227,40.5C 228.728,40.899 230.228,41.5657 231.5,42.5 Z"/></g>
<g><path style="opacity:0.957" fill="#292929" d="M 270.5,45.5 C 271.833,45.5 273.167,45.5 274.5,45.5C 274.5,46.5 274.5,47.5 274.5,48.5C 275.981,49.4212 277.314,50.5879 278.5,52C 278.43,52.7648 278.097,53.2648 277.5,53.5C 276.609,54.1098 275.609,54.4431 274.5,54.5C 273.603,53.4019 272.77,53.4019 272,54.5C 270.409,56.9266 269.575,59.5933 269.5,62.5C 270.5,62.5 271.5,62.5 272.5,62.5C 272.923,64.7812 272.256,66.4479 270.5,67.5C 269.292,66.7659 267.959,66.4326 266.5,66.5C 264.774,64.1799 264.107,61.5133 264.5,58.5C 266.112,54.7688 266.778,51.1021 266.5,47.5C 268.483,47.8432 269.817,47.1765 270.5,45.5 Z"/></g>
<g><path style="opacity:0.157" fill="#dadada" d="M 248.5,44.5 C 248.573,46.0269 247.906,47.0269 246.5,47.5C 246.427,45.9731 247.094,44.9731 248.5,44.5 Z"/></g>
<g><path style="opacity:0.365" fill="#cbcbcb" d="M 270.5,45.5 C 269.817,47.1765 268.483,47.8432 266.5,47.5C 266.369,46.7611 266.536,46.0944 267,45.5C 268.145,46.6843 269.312,46.6843 270.5,45.5 Z"/></g>
<g><path style="opacity:0.024" fill="#c7c7c7" d="M 214.5,44.5 C 217.453,46.5635 217.12,47.8969 213.5,48.5C 214.234,47.2921 214.567,45.9587 214.5,44.5 Z"/></g>
<g><path style="opacity:0.353" fill="#a8a8a8" d="M 204.5,46.5 C 204.938,46.4346 205.272,46.6012 205.5,47C 203.893,48.049 203.227,49.549 203.5,51.5C 202.861,50.9032 202.528,50.0698 202.5,49C 202.684,47.6244 203.351,46.7911 204.5,46.5 Z"/></g>
<g><path style="opacity:0.624" fill="#b4b4b4" d="M 228.5,46.5 C 229.774,47.1894 229.774,48.0228 228.5,49C 225.979,49.8 224.312,49.6333 223.5,48.5C 225.403,48.2041 227.07,47.5375 228.5,46.5 Z"/></g>
<g><path style="opacity:0.957" fill="#262626" d="M 288.5,51.5 C 285.225,57.051 282.225,62.7177 279.5,68.5C 279.567,69.9587 279.234,71.2921 278.5,72.5C 277.167,71.8333 275.833,71.1667 274.5,70.5C 274.5,68.5 274.5,66.5 274.5,64.5C 274.328,63.5084 274.662,62.8417 275.5,62.5C 276.906,62.0269 277.573,61.0269 277.5,59.5C 278.906,59.0269 279.573,58.0269 279.5,56.5C 279.328,55.5084 279.662,54.8417 280.5,54.5C 281.906,54.0269 282.573,53.0269 282.5,51.5C 282.328,50.5084 282.662,49.8417 283.5,49.5C 285.909,48.2021 287.575,48.8687 288.5,51.5 Z"/></g>
<g><path style="opacity:0.047" fill="#ececec" d="M 288.5,51.5 C 287.575,48.8687 285.909,48.2021 283.5,49.5C 284.199,46.0553 285.866,45.722 288.5,48.5C 289.776,49.6136 289.776,50.6136 288.5,51.5 Z"/></g>
<g><path style="opacity:0.122" fill="#f3f3f3" d="M 195.5,50.5 C 197.265,49.5386 199.265,49.2053 201.5,49.5C 201.784,51.4147 201.451,53.0813 200.5,54.5C 200.5,53.1667 200.5,51.8333 200.5,50.5C 198.833,50.5 197.167,50.5 195.5,50.5 Z"/></g>
<g><path style="opacity:0.204" fill="#cdcdcd" d="M 213.5,48.5 C 212.833,49.1667 212.167,49.8333 211.5,50.5C 210.957,50.44 210.624,50.1067 210.5,49.5C 211.325,48.6143 212.325,48.281 213.5,48.5 Z"/></g>
<g><path style="opacity:0.954" fill="#232323" d="M 195.5,50.5 C 197.167,50.5 198.833,50.5 200.5,50.5C 200.5,51.8333 200.5,53.1667 200.5,54.5C 198.784,54.6287 197.117,54.962 195.5,55.5C 194.957,55.56 194.624,55.8933 194.5,56.5C 198.107,57.4892 201.774,57.8226 205.5,57.5C 207.163,59.4385 207.829,61.7718 207.5,64.5C 207.167,64.5 206.833,64.5 206.5,64.5C 205.167,65.1667 204.167,66.1667 203.5,67.5C 202.508,67.3284 201.842,67.6618 201.5,68.5C 198.237,68.9738 195.404,70.3072 193,72.5C 192.228,72.3552 191.561,72.0219 191,71.5C 190.867,74.4042 189.7,76.7376 187.5,78.5C 186.167,78.5 184.833,78.5 183.5,78.5C 181.983,78.4894 180.816,77.8228 180,76.5C 179.505,74.5273 179.338,72.5273 179.5,70.5C 179.833,70.5 180.167,70.5 180.5,70.5C 182.262,69.7377 183.262,68.4044 183.5,66.5C 183.631,65.6236 183.298,64.9569 182.5,64.5C 181.265,65.3398 180.265,66.3398 179.5,67.5C 178.778,68.5511 177.778,69.2178 176.5,69.5C 175.414,69.38 174.747,68.7133 174.5,67.5C 174.543,66.5836 174.876,65.9169 175.5,65.5C 177.262,64.7377 178.262,63.4044 178.5,61.5C 180.027,61.573 181.027,60.9063 181.5,59.5C 182.833,58.1667 184.167,58.1667 185.5,59.5C 186.5,61.1667 187.833,62.5 189.5,63.5C 190.031,65.5441 191.198,67.2107 193,68.5C 193.717,67.9558 194.217,67.2891 194.5,66.5C 195.222,66.0825 195.722,65.4158 196,64.5C 197.292,65.7911 198.458,65.7911 199.5,64.5C 200.091,63.8485 200.757,63.1818 201.5,62.5C 201,62.1667 200.5,61.8333 200,61.5C 197.347,62.7157 194.847,62.7157 192.5,61.5C 192.167,60.5 191.5,59.8333 190.5,59.5C 189.167,57.8333 189.167,56.1667 190.5,54.5C 191.833,53.8333 192.833,52.8333 193.5,51.5C 193.842,50.6618 194.508,50.3284 195.5,50.5 Z M 185.5,69.5 C 186.167,69.5 186.833,69.5 187.5,69.5C 187.767,72.775 186.767,73.6084 184.5,72C 185.252,71.3292 185.586,70.4959 185.5,69.5 Z"/></g>
<g><path style="opacity:0.051" fill="#d9d9d9" d="M 204.5,51.5 C 205.623,50.2426 206.289,50.5759 206.5,52.5C 205.833,52.1667 205.167,51.8333 204.5,51.5 Z"/></g>
<g><path style="opacity:0.165" fill="#e6e6e6" d="M 245.5,49.5 C 245.573,51.0269 244.906,52.0269 243.5,52.5C 243.427,50.9731 244.094,49.9731 245.5,49.5 Z"/></g>
<g><path style="opacity:0.494" fill="#b6b6b6" d="M 251.5,49.5 C 252.833,50.8333 254.167,50.8333 255.5,49.5C 256.776,50.3864 256.776,51.3864 255.5,52.5C 253.775,51.9851 252.108,51.3184 250.5,50.5C 250.624,49.8933 250.957,49.56 251.5,49.5 Z"/></g>
<g><path style="opacity:0.325" fill="#ededed" d="M 193.5,51.5 C 192.833,52.8333 191.833,53.8333 190.5,54.5C 190.5,52.5 191.5,51.5 193.5,51.5 Z"/></g>
<g><path style="opacity:0.008" fill="#f3f3f3" d="M 233.5,53.5 C 235.552,54.0527 235.885,55.0527 234.5,56.5C 234.443,55.391 234.11,54.391 233.5,53.5 Z"/></g>
<g><path style="opacity:0.18" fill="#d4d4d4" d="M 282.5,51.5 C 282.573,53.0269 281.906,54.0269 280.5,54.5C 280.427,52.9731 281.094,51.9731 282.5,51.5 Z"/></g>
<g><path style="opacity:0.017" fill="#dedede" d="M 233.5,53.5 C 231.446,54.6086 229.279,55.6086 227,56.5C 225.699,56.3613 224.866,55.6946 224.5,54.5C 227.29,54.7776 229.79,54.1109 232,52.5C 232.765,52.5699 233.265,52.9033 233.5,53.5 Z"/></g>
<g><path style="opacity:0.008" fill="#949494" d="M 277.5,53.5 C 276.947,55.5518 275.947,55.8852 274.5,54.5C 275.609,54.4431 276.609,54.1098 277.5,53.5 Z"/></g>
<g><path style="opacity:0.545" fill="#b9b9b9" d="M 242.5,54.5 C 242.167,55.8333 241.833,57.1667 241.5,58.5C 240.761,58.631 240.094,58.4643 239.5,58C 240.163,56.4815 241.163,55.3149 242.5,54.5 Z"/></g>
<g><path style="opacity:0.686" fill="#b5b5b5" d="M 195.5,55.5 C 197.327,56.5824 199.327,56.5824 201.5,55.5C 203.171,55.6682 204.504,56.3349 205.5,57.5C 201.774,57.8226 198.107,57.4892 194.5,56.5C 194.624,55.8933 194.957,55.56 195.5,55.5 Z"/></g>
<g><path style="opacity:0.478" fill="#c9c9c9" d="M 218.5,54.5 C 219.338,54.8417 219.672,55.5084 219.5,56.5C 218.833,56.5 218.5,56.8333 218.5,57.5C 217.305,57.6775 216.138,58.0109 215,58.5C 213.97,58.1639 213.47,57.4972 213.5,56.5C 215.399,57.045 217.066,56.3784 218.5,54.5 Z"/></g>
<g><path style="opacity:0.255" fill="#d2d2d2" d="M 279.5,56.5 C 279.573,58.0269 278.906,59.0269 277.5,59.5C 277.427,57.9731 278.094,56.9731 279.5,56.5 Z"/></g>
<g><path style="opacity:0.12" fill="#f2f2f2" d="M 185.5,59.5 C 187.833,59.8333 189.167,61.1667 189.5,63.5C 187.833,62.5 186.5,61.1667 185.5,59.5 Z"/></g>
<g><path style="opacity:0.659" fill="#c5c5c5" d="M 181.5,59.5 C 181.027,60.9063 180.027,61.573 178.5,61.5C 178.973,60.0937 179.973,59.427 181.5,59.5 Z"/></g>
<g><path style="opacity:0.004" fill="#d9d9d9" d="M 190.5,59.5 C 191.5,59.8333 192.167,60.5 192.5,61.5C 191.167,61.5 190.5,60.8333 190.5,59.5 Z"/></g>
<g><path style="opacity:0.42" fill="#e0e3e1" d="M 219.5,58.5 C 219.833,58.5 220.167,58.5 220.5,58.5C 220.369,59.3764 220.702,60.0431 221.5,60.5C 222.463,60.0302 222.463,59.3635 221.5,58.5C 225.2,59.758 228.866,59.758 232.5,58.5C 235.5,59.8333 238.5,59.8333 241.5,58.5C 243.36,59.0715 245.027,59.0715 246.5,58.5C 246.5,59.1667 246.5,59.8333 246.5,60.5C 239.313,60.1755 232.313,60.5088 225.5,61.5C 222.455,61.5079 219.455,61.8413 216.5,62.5C 218.229,61.7638 219.229,60.4305 219.5,58.5 Z M 220.5,58.5 C 220.833,58.5 221.167,58.5 221.5,58.5C 222.463,59.3635 222.463,60.0302 221.5,60.5C 220.702,60.0431 220.369,59.3764 220.5,58.5 Z"/></g>
<g><path style="opacity:1" fill="#0ba8e6" d="M 246.5,60.5 C 249.829,60.2153 252.829,60.8819 255.5,62.5C 256.568,63.4345 257.901,63.7678 259.5,63.5C 260.492,63.3284 261.158,63.6618 261.5,64.5C 257.789,63.8457 255.789,65.3457 255.5,69C 257.08,74.4074 258.246,79.9074 259,85.5C 260.961,88.4628 263.294,91.1294 266,93.5C 266.461,96.0907 265.628,98.2573 263.5,100C 266.319,102.575 269.319,104.908 272.5,107C 267.068,108.2 261.734,109.7 256.5,111.5C 250.338,109.052 244.005,107.552 237.5,107C 237.232,109.476 236.898,111.976 236.5,114.5C 230.121,115.015 224.288,117.015 219,120.5C 216.256,125.762 217.423,129.762 222.5,132.5C 226.956,129.874 230.956,126.707 234.5,123C 238.097,121.723 241.764,121.39 245.5,122C 246.76,124.268 248.094,126.434 249.5,128.5C 250.478,128.023 251.311,127.357 252,126.5C 252.598,123.692 253.765,121.192 255.5,119C 259.29,118.77 262.624,117.437 265.5,115C 271.338,113.52 274.171,115.687 274,121.5C 271.373,122.314 269.04,123.647 267,125.5C 269.598,134.491 274.431,142.324 281.5,149C 285.26,150.176 288.093,149.01 290,145.5C 291.632,143.067 293.132,140.567 294.5,138C 293.392,135.888 291.892,134.054 290,132.5C 289.51,131.207 289.343,129.873 289.5,128.5C 292.607,128.351 295.607,128.851 298.5,130C 302.678,134.529 305.678,139.695 307.5,145.5C 307.595,148.697 306.928,151.697 305.5,154.5C 304.069,155.78 303.402,157.447 303.5,159.5C 303.293,162.241 302.293,164.574 300.5,166.5C 299.662,166.842 299.328,167.508 299.5,168.5C 297.83,168.249 296.33,167.582 295,166.5C 292.713,163.928 291.547,160.928 291.5,157.5C 290.5,157.5 289.5,157.5 288.5,157.5C 288.58,163.16 290.913,167.66 295.5,171C 288.194,179.805 279.528,186.972 269.5,192.5C 269.167,192.167 268.833,191.833 268.5,191.5C 272.744,184.422 272.411,177.755 267.5,171.5C 267.971,169.421 268.637,167.421 269.5,165.5C 273.842,163.664 276.509,160.498 277.5,156C 277.58,151.914 275.58,150.081 271.5,150.5C 268.691,146.232 265.857,141.898 263,137.5C 261.421,135.959 259.587,134.792 257.5,134C 249.623,131.818 241.623,131.152 233.5,132C 226.981,134.502 223.481,139.335 223,146.5C 222.478,152.343 224.978,156.51 230.5,159C 233.833,160.333 237.167,161.667 240.5,163C 242.113,165.228 242.78,167.728 242.5,170.5C 240.959,168.206 239.625,168.206 238.5,170.5C 239.16,172.815 240.493,174.481 242.5,175.5C 243.034,181.417 244.367,187.084 246.5,192.5C 242.051,200.192 235.385,202.692 226.5,200C 220.96,199.062 215.627,197.562 210.5,195.5C 211.937,190.129 211.77,184.795 210,179.5C 208.333,176.167 206.667,172.833 205,169.5C 200.943,166.109 197.61,162.109 195,157.5C 189.779,150.917 183.113,146.917 175,145.5C 171.976,145.481 169.142,146.147 166.5,147.5C 165.698,146.048 165.198,144.382 165,142.5C 164.501,137.177 164.334,131.844 164.5,126.5C 170.506,122.67 174.34,117.337 176,110.5C 179.249,106.34 181.749,101.674 183.5,96.5C 182.698,93.5514 182.364,90.5514 182.5,87.5C 182.443,86.391 182.11,85.391 181.5,84.5C 182.326,82.7356 183.659,81.4023 185.5,80.5C 186.5,80.1667 187.167,79.5 187.5,78.5C 189.749,77.9202 191.415,76.5869 192.5,74.5C 192.833,74.5 193.167,74.5 193.5,74.5C 193.104,77.0444 193.771,79.2111 195.5,81C 198.702,82.4833 202.036,82.8166 205.5,82C 212.741,75.8479 219.408,69.0145 225.5,61.5C 232.313,60.5088 239.313,60.1755 246.5,60.5 Z"/></g>
<g><path style="opacity:0.443" fill="#dadada" d="M 293.5,61.5 C 291.833,61.5 290.167,61.5 288.5,61.5C 288.527,63.1993 289.194,64.5326 290.5,65.5C 289.5,65.5 288.5,65.5 287.5,65.5C 287.5,63.8333 287.5,62.1667 287.5,60.5C 289.735,60.2053 291.735,60.5386 293.5,61.5 Z"/></g>
<g><path style="opacity:0.997" fill="#71c576" d="M 225.5,61.5 C 219.408,69.0145 212.741,75.8479 205.5,82C 202.036,82.8166 198.702,82.4833 195.5,81C 193.771,79.2111 193.104,77.0444 193.5,74.5C 196.205,72.4884 198.872,70.4884 201.5,68.5C 201.842,67.6618 202.508,67.3284 203.5,67.5C 208.011,66.0689 212.345,64.4022 216.5,62.5C 219.455,61.8413 222.455,61.5079 225.5,61.5 Z"/></g>
<g><path style="opacity:0.149" fill="#e6e6e6" d="M 277.5,59.5 C 277.573,61.0269 276.906,62.0269 275.5,62.5C 275.427,60.9731 276.094,59.9731 277.5,59.5 Z"/></g>
<g><path style="opacity:0.961" fill="#2b2b2b" d="M 293.5,61.5 C 293.973,62.9063 294.973,63.573 296.5,63.5C 296.427,65.0269 297.094,66.0269 298.5,66.5C 299.598,67.6009 299.765,68.9343 299,70.5C 296.999,73.3307 294.833,75.9974 292.5,78.5C 291.262,78.81 291.262,79.31 292.5,80C 293.448,80.4828 294.448,80.6495 295.5,80.5C 295.232,82.099 295.566,83.4324 296.5,84.5C 297.54,87.3881 298.873,87.7214 300.5,85.5C 300.376,84.8933 300.043,84.56 299.5,84.5C 297.566,81.8832 297.233,79.2165 298.5,76.5C 300.82,74.7739 303.487,74.1072 306.5,74.5C 307.5,74.8333 308.167,75.5 308.5,76.5C 308.427,78.0269 309.094,79.0269 310.5,79.5C 311.929,84.2629 310.263,85.5963 305.5,83.5C 305.784,85.4147 305.451,87.0813 304.5,88.5C 303.5,88.8333 302.833,89.5 302.5,90.5C 301.486,91.6737 300.153,92.3404 298.5,92.5C 298.5,92.1667 298.5,91.8333 298.5,91.5C 296.525,89.863 294.525,88.1964 292.5,86.5C 290.496,83.497 288.496,80.497 286.5,77.5C 285.833,77.5 285.167,77.5 284.5,77.5C 283.71,76.5987 282.71,75.9321 281.5,75.5C 280.286,72.8707 280.286,70.204 281.5,67.5C 284.947,65.1773 288.281,65.5106 291.5,68.5C 292.386,69.7759 293.386,69.7759 294.5,68.5C 294.376,67.8933 294.043,67.56 293.5,67.5C 292.71,66.5987 291.71,65.9321 290.5,65.5C 289.194,64.5326 288.527,63.1993 288.5,61.5C 290.167,61.5 291.833,61.5 293.5,61.5 Z M 289.5,71.5 C 289.5,72.1667 289.5,72.8333 289.5,73.5C 288.167,73.5 286.833,73.5 285.5,73.5C 285.281,72.325 285.614,71.325 286.5,70.5C 287.417,71.1272 288.417,71.4606 289.5,71.5 Z M 305.5,83.5 C 303.901,82.2015 303.401,80.5348 304,78.5C 305.269,79.9047 305.769,81.5714 305.5,83.5 Z"/></g>
<g><path style="opacity:0.004" fill="#e7e7e7" d="M 293.5,61.5 C 295.027,61.427 296.027,62.0937 296.5,63.5C 294.973,63.573 293.973,62.9063 293.5,61.5 Z"/></g>
<g><path style="opacity:0.839" fill="#9d9d9d" d="M 178.5,61.5 C 178.262,63.4044 177.262,64.7377 175.5,65.5C 175.738,63.5956 176.738,62.2623 178.5,61.5 Z"/></g>
<g><path style="opacity:0.099" fill="#e9f3ee" d="M 211.5,62.5 C 213.167,62.5 214.833,62.5 216.5,62.5C 212.345,64.4022 208.011,66.0689 203.5,67.5C 204.167,66.1667 205.167,65.1667 206.5,64.5C 206.833,65.8333 207.167,65.8333 207.5,64.5C 209.153,64.3404 210.486,63.6737 211.5,62.5 Z"/></g>
<g><path style="opacity:0.025" fill="#e7f4f9" d="M 256.5,61.5 C 257.391,62.1098 258.391,62.4431 259.5,62.5C 259.5,62.8333 259.5,63.1667 259.5,63.5C 257.901,63.7678 256.568,63.4345 255.5,62.5C 256.167,62.5 256.5,62.1667 256.5,61.5 Z"/></g>
<g><path style="opacity:0.056" fill="#d6d6d6" d="M 199.5,64.5 C 198.458,65.7911 197.292,65.7911 196,64.5C 195.722,65.4158 195.222,66.0825 194.5,66.5C 194.5,65.5 194.5,64.5 194.5,63.5C 196.216,63.6287 197.883,63.962 199.5,64.5 Z"/></g>
<g><path style="opacity:0.02" fill="#dde0df" d="M 264.5,58.5 C 264.107,61.5133 264.774,64.1799 266.5,66.5C 264.847,66.3404 263.514,65.6737 262.5,64.5C 263.167,62.5 263.833,60.5 264.5,58.5 Z"/></g>
<g><path style="opacity:0.999" fill="#71c575" d="M 261.5,64.5 C 261.833,64.5 262.167,64.5 262.5,64.5C 263.514,65.6737 264.847,66.3404 266.5,66.5C 267.959,66.4326 269.292,66.7659 270.5,67.5C 271.167,68.1667 271.833,68.8333 272.5,69.5C 272.842,70.3382 273.508,70.6716 274.5,70.5C 275.833,71.1667 277.167,71.8333 278.5,72.5C 278.5,72.8333 278.5,73.1667 278.5,73.5C 278.973,74.9063 279.973,75.573 281.5,75.5C 282.71,75.9321 283.71,76.5987 284.5,77.5C 284.5,77.8333 284.5,78.1667 284.5,78.5C 286.833,81.5 289.5,84.1667 292.5,86.5C 294.836,89.8417 297.169,93.175 299.5,96.5C 300.338,96.8417 300.672,97.5084 300.5,98.5C 300.992,100.819 301.992,102.819 303.5,104.5C 303.402,106.553 304.069,108.22 305.5,109.5C 305.5,109.833 305.5,110.167 305.5,110.5C 305.898,115.412 306.898,120.079 308.5,124.5C 309.915,131.664 309.582,138.664 307.5,145.5C 305.678,139.695 302.678,134.529 298.5,130C 295.607,128.851 292.607,128.351 289.5,128.5C 289.343,129.873 289.51,131.207 290,132.5C 291.892,134.054 293.392,135.888 294.5,138C 293.132,140.567 291.632,143.067 290,145.5C 288.093,149.01 285.26,150.176 281.5,149C 274.431,142.324 269.598,134.491 267,125.5C 269.04,123.647 271.373,122.314 274,121.5C 274.171,115.687 271.338,113.52 265.5,115C 262.624,117.437 259.29,118.77 255.5,119C 253.765,121.192 252.598,123.692 252,126.5C 251.311,127.357 250.478,128.023 249.5,128.5C 248.094,126.434 246.76,124.268 245.5,122C 241.764,121.39 238.097,121.723 234.5,123C 230.956,126.707 226.956,129.874 222.5,132.5C 217.423,129.762 216.256,125.762 219,120.5C 224.288,117.015 230.121,115.015 236.5,114.5C 236.898,111.976 237.232,109.476 237.5,107C 244.005,107.552 250.338,109.052 256.5,111.5C 261.734,109.7 267.068,108.2 272.5,107C 269.319,104.908 266.319,102.575 263.5,100C 265.628,98.2573 266.461,96.0907 266,93.5C 263.294,91.1294 260.961,88.4628 259,85.5C 258.246,79.9074 257.08,74.4074 255.5,69C 255.789,65.3457 257.789,63.8457 261.5,64.5 Z"/></g>
<g><path style="opacity:0.51" fill="#c2c2c2" d="M 189.5,63.5 C 190.922,64.925 192.589,65.925 194.5,66.5C 194.217,67.2891 193.717,67.9558 193,68.5C 191.198,67.2107 190.031,65.5441 189.5,63.5 Z"/></g>
<g><path style="opacity:0.341" fill="#a0a0a0" d="M 296.5,63.5 C 297.906,63.9731 298.573,64.9731 298.5,66.5C 297.094,66.0269 296.427,65.0269 296.5,63.5 Z"/></g>
<g><path style="opacity:0.275" fill="#e9e9e9" d="M 167.5,65.5 C 166.5,66.1667 165.5,66.8333 164.5,67.5C 164.668,64.9486 165.668,64.2819 167.5,65.5 Z"/></g>
<g><path style="opacity:0.974" fill="#141414" d="M 167.5,65.5 C 168.167,66.5 168.833,67.5 169.5,68.5C 168.094,68.9731 167.427,69.9731 167.5,71.5C 166.711,71.7828 166.044,72.2828 165.5,73C 166.471,74.4813 167.804,75.3146 169.5,75.5C 170.262,77.2624 171.596,78.2624 173.5,78.5C 174.585,80.5869 176.251,81.9202 178.5,82.5C 178.833,83.5 179.5,84.1667 180.5,84.5C 179.599,86.7271 177.933,87.7271 175.5,87.5C 174.5,87.1667 173.833,86.5 173.5,85.5C 172.738,83.7376 171.404,82.7376 169.5,82.5C 168.833,82.5 168.5,82.1667 168.5,81.5C 168.027,80.0937 167.027,79.427 165.5,79.5C 164.542,79.0472 163.708,78.3805 163,77.5C 162.148,78.5707 161.315,79.5707 160.5,80.5C 159.167,80.5 157.833,80.5 156.5,80.5C 156.833,79.1667 157.167,77.8333 157.5,76.5C 159.262,75.7377 160.262,74.4044 160.5,72.5C 162.587,71.4154 163.92,69.7488 164.5,67.5C 165.5,66.8333 166.5,66.1667 167.5,65.5 Z"/></g>
<g><path style="opacity:0.025" fill="#fbfbfb" d="M 167.5,65.5 C 170.051,65.6682 170.718,66.6682 169.5,68.5C 168.833,67.5 168.167,66.5 167.5,65.5 Z"/></g>
<g><path style="opacity:0.718" fill="#a8a8a8" d="M 183.5,66.5 C 183.262,68.4044 182.262,69.7377 180.5,70.5C 180.738,68.5956 181.738,67.2623 183.5,66.5 Z"/></g>
<g><path style="opacity:0.365" fill="#a1a2a2" d="M 274.5,64.5 C 274.5,66.5 274.5,68.5 274.5,70.5C 273.508,70.6716 272.842,70.3382 272.5,69.5C 273.167,67.8333 273.833,66.1667 274.5,64.5 Z"/></g>
<g><path style="opacity:0.004" fill="#d3d3d3" d="M 187.5,69.5 C 186.833,69.5 186.167,69.5 185.5,69.5C 186.548,67.0673 187.214,67.0673 187.5,69.5 Z"/></g>
<g><path style="opacity:0.325" fill="#e0e0e0" d="M 293.5,67.5 C 294.043,67.56 294.376,67.8933 294.5,68.5C 293.386,69.7759 292.386,69.7759 291.5,68.5C 292.492,68.6716 293.158,68.3382 293.5,67.5 Z"/></g>
<g><path style="opacity:0.608" fill="#c3c3c3" d="M 164.5,67.5 C 163.92,69.7488 162.587,71.4154 160.5,72.5C 161.08,70.2512 162.413,68.5846 164.5,67.5 Z"/></g>
<g><path style="opacity:0.008" fill="#d5d5d5" d="M 169.5,68.5 C 169.573,70.0269 168.906,71.0269 167.5,71.5C 167.427,69.9731 168.094,68.9731 169.5,68.5 Z"/></g>
<g><path style="opacity:0.02" fill="#f2f2f2" d="M 179.5,67.5 C 179.5,68.5 179.5,69.5 179.5,70.5C 178.209,70.7373 177.209,70.404 176.5,69.5C 177.778,69.2178 178.778,68.5511 179.5,67.5 Z"/></g>
<g><path style="opacity:0.027" fill="#e1e1e1" d="M 167.5,71.5 C 167.733,73.0618 168.4,74.3951 169.5,75.5C 167.804,75.3146 166.471,74.4813 165.5,73C 166.044,72.2828 166.711,71.7828 167.5,71.5 Z"/></g>
<g><path style="opacity:0.149" fill="#c1c1c1" d="M 185.5,69.5 C 185.586,70.4959 185.252,71.3292 184.5,72C 186.767,73.6084 187.767,72.775 187.5,69.5C 188.598,70.6009 188.765,71.9343 188,73.5C 185.833,75 184.333,74.5 183.5,72C 183.639,70.699 184.305,69.8656 185.5,69.5 Z M 185.5,69.5 C 186.167,69.5 186.833,69.5 187.5,69.5C 187.767,72.775 186.767,73.6084 184.5,72C 185.252,71.3292 185.586,70.4959 185.5,69.5 Z"/></g>
<g><path style="opacity:0.014" fill="#eaeaea" d="M 289.5,71.5 C 291.933,71.7856 291.933,72.4523 289.5,73.5C 289.5,72.8333 289.5,72.1667 289.5,71.5 Z"/></g>
<g><path style="opacity:0.037" fill="#dce9eb" d="M 201.5,68.5 C 198.872,70.4884 196.205,72.4884 193.5,74.5C 193.167,74.5 192.833,74.5 192.5,74.5C 191.415,76.5869 189.749,77.9202 187.5,78.5C 189.7,76.7376 190.867,74.4042 191,71.5C 191.561,72.0219 192.228,72.3552 193,72.5C 195.404,70.3072 198.237,68.9738 201.5,68.5 Z"/></g>
<g><path style="opacity:0.029" fill="#dce5e0" d="M 281.5,67.5 C 280.286,70.204 280.286,72.8707 281.5,75.5C 279.973,75.573 278.973,74.9063 278.5,73.5C 279.833,73.1667 279.833,72.8333 278.5,72.5C 279.234,71.2921 279.567,69.9587 279.5,68.5C 280.167,68.1667 280.833,67.8333 281.5,67.5 Z"/></g>
<g><path style="opacity:0.565" fill="#bebebe" d="M 160.5,72.5 C 160.262,74.4044 159.262,75.7377 157.5,76.5C 157.738,74.5956 158.738,73.2623 160.5,72.5 Z"/></g>
<g><path style="opacity:0.553" fill="#c5c5c5" d="M 306.5,74.5 C 303.487,74.1072 300.82,74.7739 298.5,76.5C 298.414,75.5041 298.748,74.6708 299.5,74C 302.039,73.2042 304.372,73.3709 306.5,74.5 Z"/></g>
<g><path style="opacity:0.125" fill="#eeeeee" d="M 169.5,75.5 C 171.404,75.7376 172.738,76.7376 173.5,78.5C 171.596,78.2624 170.262,77.2624 169.5,75.5 Z"/></g>
<g><path style="opacity:0.014" fill="#e7f4ed" d="M 286.5,77.5 C 288.496,80.497 290.496,83.497 292.5,86.5C 289.5,84.1667 286.833,81.5 284.5,78.5C 285.492,78.6716 286.158,78.3382 286.5,77.5 Z"/></g>
<g><path style="opacity:0.639" fill="#a2a2a2" d="M 157.5,76.5 C 157.167,77.8333 156.833,79.1667 156.5,80.5C 154.198,79.0013 154.531,77.668 157.5,76.5 Z"/></g>
<g><path style="opacity:0.076" fill="#eeeeee" d="M 173.5,78.5 C 175.749,79.0798 177.415,80.4131 178.5,82.5C 176.251,81.9202 174.585,80.5869 173.5,78.5 Z"/></g>
<g><path style="opacity:0.064" fill="#fdfdff" d="M 183.5,78.5 C 184.833,78.5 186.167,78.5 187.5,78.5C 187.167,79.5 186.5,80.1667 185.5,80.5C 184.833,79.8333 184.167,79.1667 183.5,78.5 Z"/></g>
<g><path style="opacity:0.133" fill="#d9d9d9" d="M 308.5,76.5 C 309.906,76.9731 310.573,77.9731 310.5,79.5C 309.094,79.0269 308.427,78.0269 308.5,76.5 Z"/></g>
<g><path style="opacity:0.559" fill="#8f8f8f" d="M 156.5,80.5 C 157.833,80.5 159.167,80.5 160.5,80.5C 159.167,83.1667 157.833,83.1667 156.5,80.5 Z"/></g>
<g><path style="opacity:0.243" fill="#aeaeae" d="M 165.5,79.5 C 167.027,79.427 168.027,80.0937 168.5,81.5C 166.973,81.573 165.973,80.9063 165.5,79.5 Z"/></g>
<g><path style="opacity:0.263" fill="#a7a7a7" d="M 292.5,78.5 C 293.708,79.2341 295.041,79.5674 296.5,79.5C 296.5,81.1667 296.5,82.8333 296.5,84.5C 295.566,83.4324 295.232,82.099 295.5,80.5C 294.448,80.6495 293.448,80.4828 292.5,80C 291.262,79.31 291.262,78.81 292.5,78.5 Z"/></g>
<g><path style="opacity:0.069" fill="#fcfcfc" d="M 178.5,82.5 C 179.833,82.5 180.5,83.1667 180.5,84.5C 179.5,84.1667 178.833,83.5 178.5,82.5 Z"/></g>
<g><path style="opacity:0.278" fill="#a6a6a6" d="M 169.5,82.5 C 171.404,82.7376 172.738,83.7376 173.5,85.5C 171.596,85.2624 170.262,84.2624 169.5,82.5 Z"/></g>
<g><path style="opacity:1" fill="#6ec475" d="M 203.5,85.5 C 219.301,86.0767 220.634,90.91 207.5,100C 202.126,101.008 197.459,103.341 193.5,107C 191.393,107.854 190.059,107.188 189.5,105C 189.807,100.556 189.974,96.056 190,91.5C 194.556,90.784 199.056,89.784 203.5,88.5C 203.5,87.5 203.5,86.5 203.5,85.5 Z"/></g>
<g><path style="opacity:0.024" fill="#d8d8d8" d="M 296.5,84.5 C 297.652,85.625 298.652,85.625 299.5,84.5C 300.043,84.56 300.376,84.8933 300.5,85.5C 298.873,87.7214 297.54,87.3881 296.5,84.5 Z"/></g>
<g><path style="opacity:0.997" fill="#75c77a" d="M 182.5,87.5 C 182.364,90.5514 182.698,93.5514 183.5,96.5C 181.749,101.674 179.249,106.34 176,110.5C 174.34,117.337 170.506,122.67 164.5,126.5C 164.5,124.5 164.5,122.5 164.5,120.5C 164.216,118.585 164.549,116.919 165.5,115.5C 167.163,113.562 167.829,111.228 167.5,108.5C 167.707,105.759 168.707,103.426 170.5,101.5C 171.674,100.486 172.34,99.153 172.5,97.5C 174.25,96.3406 175.25,94.674 175.5,92.5C 177.099,90.3962 178.932,88.3962 181,86.5C 181.383,87.056 181.883,87.3893 182.5,87.5 Z"/></g>
<g><path style="opacity:0.463" fill="#cddcd6" d="M 180.5,84.5 C 180.833,84.5 181.167,84.5 181.5,84.5C 182.11,85.391 182.443,86.391 182.5,87.5C 181.883,87.3893 181.383,87.056 181,86.5C 178.932,88.3962 177.099,90.3962 175.5,92.5C 176.562,90.7659 176.562,89.0992 175.5,87.5C 177.933,87.7271 179.599,86.7271 180.5,84.5 Z"/></g>
<g><path style="opacity:0.004" fill="#e4e4e4" d="M 304.5,88.5 C 304.5,89.8333 303.833,90.5 302.5,90.5C 302.833,89.5 303.5,88.8333 304.5,88.5 Z"/></g>
<g><path style="opacity:0.376" fill="#dae4dd" d="M 292.5,86.5 C 294.525,88.1964 296.525,89.863 298.5,91.5C 297.167,91.8333 297.167,92.1667 298.5,92.5C 298.833,93.8333 299.167,95.1667 299.5,96.5C 297.169,93.175 294.836,89.8417 292.5,86.5 Z"/></g>
<g><path style="opacity:0.192" fill="#e8f6f0" d="M 175.5,92.5 C 175.25,94.674 174.25,96.3406 172.5,97.5C 172.75,95.326 173.75,93.6594 175.5,92.5 Z"/></g>
<g><path style="opacity:0.404" fill="#f2faf5" d="M 172.5,97.5 C 172.34,99.153 171.674,100.486 170.5,101.5C 170.229,99.6203 170.896,98.287 172.5,97.5 Z"/></g>
<g><path style="opacity:0.037" fill="#f8fcfa" d="M 300.5,98.5 C 302.539,99.911 303.539,101.911 303.5,104.5C 301.992,102.819 300.992,100.819 300.5,98.5 Z"/></g>
<g><path style="opacity:1" fill="#6ac37b" d="M 209.5,102.5 C 210.5,102.5 211.5,102.5 212.5,102.5C 212.876,105.619 211.709,107.953 209,109.5C 207.378,109.046 206.212,108.046 205.5,106.5C 206.867,105.16 208.2,103.827 209.5,102.5 Z"/></g>
<g><path style="opacity:0.088" fill="#fafdfc" d="M 303.5,104.5 C 304.931,105.78 305.598,107.447 305.5,109.5C 304.069,108.22 303.402,106.553 303.5,104.5 Z"/></g>
<g><path style="opacity:0.875" fill="#c7e9cf" d="M 167.5,108.5 C 167.829,111.228 167.163,113.562 165.5,115.5C 165.41,112.848 166.076,110.515 167.5,108.5 Z"/></g>
<g><path style="opacity:0.482" fill="#d0ecd7" d="M 305.5,110.5 C 307.502,114.833 308.502,119.5 308.5,124.5C 306.898,120.079 305.898,115.412 305.5,110.5 Z"/></g>
<g><path style="opacity:1" fill="#6fc473" d="M 271.5,150.5 C 269.682,155.271 269.015,160.271 269.5,165.5C 268.637,167.421 267.971,169.421 267.5,171.5C 262.941,169.088 258.275,168.921 253.5,171C 251.959,172.579 250.792,174.413 250,176.5C 249.953,182.206 248.786,187.539 246.5,192.5C 244.367,187.084 243.034,181.417 242.5,175.5C 243.552,175.649 244.552,175.483 245.5,175C 244.117,173.729 243.117,172.229 242.5,170.5C 242.78,167.728 242.113,165.228 240.5,163C 237.167,161.667 233.833,160.333 230.5,159C 224.978,156.51 222.478,152.343 223,146.5C 223.481,139.335 226.981,134.502 233.5,132C 241.623,131.152 249.623,131.818 257.5,134C 259.587,134.792 261.421,135.959 263,137.5C 265.857,141.898 268.691,146.232 271.5,150.5 Z"/></g>
<g><path style="opacity:0.125" fill="#def2f6" d="M 164.5,120.5 C 164.5,122.5 164.5,124.5 164.5,126.5C 164.334,131.844 164.501,137.177 165,142.5C 165.198,144.382 165.698,146.048 166.5,147.5C 167.008,151.197 167.674,154.864 168.5,158.5C 165.938,153.939 164.438,148.939 164,143.5C 163.178,135.655 163.344,127.989 164.5,120.5 Z"/></g>
<g><path style="opacity:0.999" fill="#6fc373" d="M 210.5,195.5 C 197.093,190.595 186.093,182.429 177.5,171C 182.177,167.501 183.844,163.001 182.5,157.5C 181.052,159.667 179.885,162 179,164.5C 177.549,166.464 175.716,167.797 173.5,168.5C 173.068,167.29 172.401,166.29 171.5,165.5C 170.662,165.158 170.328,164.492 170.5,163.5C 170.598,161.447 169.931,159.78 168.5,158.5C 167.674,154.864 167.008,151.197 166.5,147.5C 169.142,146.147 171.976,145.481 175,145.5C 183.113,146.917 189.779,150.917 195,157.5C 197.61,162.109 200.943,166.109 205,169.5C 206.667,172.833 208.333,176.167 210,179.5C 211.77,184.795 211.937,190.129 210.5,195.5 Z"/></g>
<g><path style="opacity:1" fill="#050909" d="M 271.5,150.5 C 275.58,150.081 277.58,151.914 277.5,156C 276.509,160.498 273.842,163.664 269.5,165.5C 269.015,160.271 269.682,155.271 271.5,150.5 Z"/></g>
<g><path style="opacity:0.027" fill="#e8f6fc" d="M 305.5,154.5 C 305.598,156.553 304.931,158.22 303.5,159.5C 303.402,157.447 304.069,155.78 305.5,154.5 Z"/></g>
<g><path style="opacity:0.992" fill="#191b1b" d="M 210.5,195.5 C 215.627,197.562 220.96,199.062 226.5,200C 235.385,202.692 242.051,200.192 246.5,192.5C 248.786,187.539 249.953,182.206 250,176.5C 250.792,174.413 251.959,172.579 253.5,171C 258.275,168.921 262.941,169.088 267.5,171.5C 272.411,177.755 272.744,184.422 268.5,191.5C 268.833,191.833 269.167,192.167 269.5,192.5C 279.528,186.972 288.194,179.805 295.5,171C 290.913,167.66 288.58,163.16 288.5,157.5C 289.5,157.5 290.5,157.5 291.5,157.5C 291.547,160.928 292.713,163.928 295,166.5C 296.33,167.582 297.83,168.249 299.5,168.5C 302.5,169.833 305.5,169.833 308.5,168.5C 310.483,168.157 311.817,168.824 312.5,170.5C 311.713,172.104 310.38,172.771 308.5,172.5C 304.818,172.335 301.152,172.501 297.5,173C 296.748,173.671 296.414,174.504 296.5,175.5C 294.738,176.262 293.738,177.596 293.5,179.5C 291.167,182.5 288.5,185.167 285.5,187.5C 283.973,187.427 282.973,188.094 282.5,189.5C 280.049,192.277 277.049,194.277 273.5,195.5C 271.973,195.427 270.973,196.094 270.5,197.5C 266.556,199.964 262.223,201.63 257.5,202.5C 254.848,202.41 252.515,203.076 250.5,204.5C 241.359,205.762 232.359,205.762 223.5,204.5C 221.162,202.96 218.495,202.294 215.5,202.5C 213.901,202.768 212.568,202.434 211.5,201.5C 210.22,200.069 208.553,199.402 206.5,199.5C 203.515,198.674 200.849,197.341 198.5,195.5C 198.027,194.094 197.027,193.427 195.5,193.5C 195.027,192.094 194.027,191.427 192.5,191.5C 191.738,189.738 190.404,188.738 188.5,188.5C 185.833,185.167 182.833,182.167 179.5,179.5C 178.5,179.167 177.833,178.5 177.5,177.5C 177.262,175.596 176.262,174.262 174.5,173.5C 170.999,173.738 167.333,173.405 163.5,172.5C 162.508,172.672 161.842,172.338 161.5,171.5C 160.15,170.176 160.317,169.176 162,168.5C 165.877,169.806 169.711,169.806 173.5,168.5C 175.716,167.797 177.549,166.464 179,164.5C 179.885,162 181.052,159.667 182.5,157.5C 183.844,163.001 182.177,167.501 177.5,171C 186.093,182.429 197.093,190.595 210.5,195.5 Z"/></g>
<g><path style="opacity:0.043" fill="#eef8f3" d="M 168.5,158.5 C 169.931,159.78 170.598,161.447 170.5,163.5C 169.069,162.22 168.402,160.553 168.5,158.5 Z"/></g>
<g><path style="opacity:0.514" fill="#d1d1d1" d="M 312.5,170.5 C 311.817,168.824 310.483,168.157 308.5,168.5C 310.534,165.797 312.201,165.963 313.5,169C 313.43,169.765 313.097,170.265 312.5,170.5 Z"/></g>
<g><path style="opacity:0.162" fill="#f0f0f0" d="M 171.5,165.5 C 172.401,166.29 173.068,167.29 173.5,168.5C 169.711,169.806 165.877,169.806 162,168.5C 160.317,169.176 160.15,170.176 161.5,171.5C 159.744,170.448 159.077,168.781 159.5,166.5C 163.384,167.793 167.384,168.459 171.5,168.5C 171.5,167.5 171.5,166.5 171.5,165.5 Z"/></g>
<g><path style="opacity:1" fill="#0f181c" d="M 276.5,167.5 C 279.166,167.066 280.333,168.066 280,170.5C 277.936,171.591 275.769,171.758 273.5,171C 274.71,169.961 275.71,168.794 276.5,167.5 Z"/></g>
<g><path style="opacity:0.079" fill="#f1f2f2" d="M 300.5,166.5 C 302.635,168.369 305.302,169.036 308.5,168.5C 305.5,169.833 302.5,169.833 299.5,168.5C 299.328,167.508 299.662,166.842 300.5,166.5 Z"/></g>
<g><path style="opacity:1" fill="#121917" d="M 242.5,170.5 C 243.117,172.229 244.117,173.729 245.5,175C 244.552,175.483 243.552,175.649 242.5,175.5C 240.493,174.481 239.16,172.815 238.5,170.5C 239.625,168.206 240.959,168.206 242.5,170.5 Z"/></g>
<g><path style="opacity:1" fill="#6ebf72" d="M 266.5,175.5 C 265.405,180.128 263.738,184.461 261.5,188.5C 261.817,185.428 261.484,182.428 260.5,179.5C 259.914,179.709 259.414,180.043 259,180.5C 258.345,185.961 257.178,191.294 255.5,196.5C 253.05,196.702 250.717,196.369 248.5,195.5C 251.455,189.571 252.955,183.238 253,176.5C 255.911,172.723 259.744,171.556 264.5,173C 265.381,173.708 266.047,174.542 266.5,175.5 Z"/></g>
<g><path style="opacity:0.463" fill="#aeaeae" d="M 308.5,172.5 C 305.945,174.505 303.111,174.838 300,173.5C 298.697,173.978 297.531,174.645 296.5,175.5C 296.414,174.504 296.748,173.671 297.5,173C 301.152,172.501 304.818,172.335 308.5,172.5 Z"/></g>
<g><path style="opacity:0.009" fill="#f4f4f4" d="M 163.5,172.5 C 167.333,173.405 170.999,173.738 174.5,173.5C 170.532,175.119 166.866,174.785 163.5,172.5 Z"/></g>
<g><path style="opacity:0.008" fill="#d5d5d5" d="M 174.5,173.5 C 176.262,174.262 177.262,175.596 177.5,177.5C 175.738,176.738 174.738,175.404 174.5,173.5 Z"/></g>
<g><path style="opacity:1" fill="#13a0d9" d="M 266.5,175.5 C 267.898,176.777 268.564,178.443 268.5,180.5C 267.902,185.46 266.402,190.127 264,194.5C 262.112,196.631 260.612,196.631 259.5,194.5C 260.178,192.484 260.844,190.484 261.5,188.5C 263.738,184.461 265.405,180.128 266.5,175.5 Z"/></g>
<g><path style="opacity:0.008" fill="#e2e2e2" d="M 296.5,175.5 C 296.262,177.404 295.262,178.738 293.5,179.5C 293.738,177.596 294.738,176.262 296.5,175.5 Z"/></g>
<g><path style="opacity:0.008" fill="#cfcfcf" d="M 179.5,179.5 C 182.833,182.167 185.833,185.167 188.5,188.5C 184.5,186.5 181.5,183.5 179.5,179.5 Z"/></g>
<g><path style="opacity:0.471" fill="#acacac" d="M 188.5,188.5 C 190.404,188.738 191.738,189.738 192.5,191.5C 190.596,191.262 189.262,190.262 188.5,188.5 Z"/></g>
<g><path style="opacity:0.008" fill="#e5e5e5" d="M 285.5,187.5 C 285.027,188.906 284.027,189.573 282.5,189.5C 282.973,188.094 283.973,187.427 285.5,187.5 Z"/></g>
<g><path style="opacity:0.157" fill="#bababa" d="M 192.5,191.5 C 194.027,191.427 195.027,192.094 195.5,193.5C 193.973,193.573 192.973,192.906 192.5,191.5 Z"/></g>
<g><path style="opacity:0.122" fill="#c9c9c9" d="M 195.5,193.5 C 197.027,193.427 198.027,194.094 198.5,195.5C 196.973,195.573 195.973,194.906 195.5,193.5 Z"/></g>
<g><path style="opacity:0.008" fill="#e3e3e3" d="M 273.5,195.5 C 273.027,196.906 272.027,197.573 270.5,197.5C 270.973,196.094 271.973,195.427 273.5,195.5 Z"/></g>
<g><path style="opacity:1" fill="#16a4db" d="M 248.5,195.5 C 250.717,196.369 253.05,196.702 255.5,196.5C 255.389,197.117 255.056,197.617 254.5,198C 251.515,198.868 248.515,199.201 245.5,199C 246.71,197.961 247.71,196.794 248.5,195.5 Z"/></g>
<g><path style="opacity:0.012" fill="#e1e1e1" d="M 206.5,199.5 C 208.553,199.402 210.22,200.069 211.5,201.5C 209.447,201.598 207.78,200.931 206.5,199.5 Z"/></g>
<g><path style="opacity:0.322" fill="#9d9d9d" d="M 215.5,202.5 C 218.495,202.294 221.162,202.96 223.5,204.5C 220.505,204.706 217.838,204.04 215.5,202.5 Z"/></g>
<g><path style="opacity:0.006" fill="#ebebeb" d="M 257.5,202.5 C 255.485,203.924 253.152,204.59 250.5,204.5C 252.515,203.076 254.848,202.41 257.5,202.5 Z"/></g>
</svg>
